<svg width="27" height="32" fill="none" xmlns="http://www.w3.org/2000/svg"><path d="M10.968.144c-.5.09-1.037.287-1.514.552-.522.295-1.362 1.12-1.59 1.567-.09.182-.544.893-.99 1.567l-.826 1.233H3.846c-2.006 0-2.218.016-2.475.144C.735 5.533.44 6.23.68 6.857c.114.318.599.772.902.856.166.045 4.556.075 12.034.075 11.278 0 11.785-.007 12.073-.144.537-.25.795-.65.795-1.24-.008-.463-.235-.91-.576-1.121-.287-.182-.333-.182-2.596-.22l-2.293-.037-.742-1.386c-.825-1.536-.976-1.763-1.59-2.346-.53-.507-1.581-1.044-2.27-1.15-.568-.084-4.943-.084-5.45 0zm5.488 2.702c.408.22.545.378 1.12 1.347l.5.833-2.264.022c-1.248.008-3.292.008-4.534 0l-2.27-.022.484-.78c.522-.855.644-1.014.977-1.249.476-.34.628-.356 3.224-.333 2.354.015 2.475.023 2.763.182zM2.438 15.704c.023 5.987.03 6.44.228 9.03.113 1.498.25 3.02.31 3.383.288 1.816 1.71 3.277 3.542 3.648.848.174 13.132.182 14.026.008 1.332-.25 2.573-1.196 3.17-2.407.387-.788.455-1.242.735-5.2.28-3.951.333-6.184.257-11.074l-.052-3.686H2.407l.03 6.298z" fill="#8A005C"/></svg>