<svg width="21" height="26" fill="none" xmlns="http://www.w3.org/2000/svg"><path d="M8.792.494c-.39.07-.81.224-1.183.431-.408.23-1.065.874-1.242 1.223-.07.142-.426.697-.775 1.223l-.644.963h-1.72c-1.568 0-1.734.012-1.935.112-.496.254-.727.798-.538 1.288.089.249.467.603.704.668.13.036 3.56.06 9.402.06 8.811 0 9.207-.007 9.432-.113.42-.195.62-.508.62-.97-.005-.36-.182-.708-.448-.874-.225-.141-.26-.141-2.029-.17l-1.791-.03-.58-1.082c-.645-1.199-.763-1.376-1.242-1.831C14.41.996 13.587.576 13.05.494c-.443-.065-3.861-.065-4.257 0zm4.287 2.109c.32.171.425.295.875 1.052l.39.65-1.768.017c-.976.006-2.572.006-3.542 0L7.26 4.305l.378-.609c.408-.668.503-.792.763-.975.373-.266.491-.278 2.52-.26 1.838.012 1.933.018 2.158.142zm-10.951 10.2c.017 4.673.023 5.027.177 7.048.089 1.17.195 2.358.243 2.641.224 1.418 1.336 2.559 2.767 2.848.662.136 10.26.142 10.957.006a3.59 3.59 0 002.478-1.879c.302-.614.355-.969.574-4.059.218-3.084.26-4.827.2-8.644l-.04-2.877H2.103l.024 4.916z" fill="#8A005C"/></svg>