<svg width="14" height="15" fill="none" xmlns="http://www.w3.org/2000/svg"><path d="M10.651 1.014c-.254.083-.366.17-.884.682l-.525.525L11 3.977l1.759 1.76.487-.487c.268-.266.525-.542.569-.616a1.31 1.31 0 00.003-1.351c-.047-.074-.531-.578-1.078-1.122-.914-.911-1.01-.996-1.185-1.08-.175-.083-.216-.091-.492-.097-.195-.005-.34.006-.41.03zM5.122 6.339L1.54 9.922l1.759 1.756 1.756 1.759 3.584-3.583L12.22 6.27l-1.759-1.759-1.756-1.756L5.122 6.34zM.545 12.526C.058 14.23-.01 14.49.001 14.619c.02.224.178.364.41.364.104 0 3.948-1.07 3.987-1.111.013-.014-3.253-3.294-3.28-3.294-.009 0-.266.875-.573 1.948z" fill="#B5B5B5"/></svg>