<svg width="18" height="18" fill="none" xmlns="http://www.w3.org/2000/svg"><path d="M13.69.04c-.326.106-.47.219-1.135.876l-.676.676 2.258 2.258L16.4 6.11l.626-.626c.345-.34.676-.696.732-.791.323-.496.323-1.238.003-1.738-.06-.095-.682-.742-1.385-1.442C15.2.343 15.077.234 14.85.124c-.225-.105-.277-.115-.633-.122-.25-.007-.436.007-.527.038zM6.586 6.885l-4.608 4.608L4.24 13.75l2.258 2.262 4.607-4.608 4.608-4.608-2.261-2.261-2.258-2.258-4.608 4.607zM.698 14.841c-.626 2.192-.714 2.526-.7 2.691.025.289.229.468.528.468.133 0 5.075-1.375 5.124-1.428.018-.018-4.182-4.235-4.217-4.235-.01 0-.341 1.126-.735 2.504z" fill="#8A005C"/></svg>