<svg width="31" height="32" fill="none" xmlns="http://www.w3.org/2000/svg"><path d="M20.916 1.026c-.538.266-.822.749-.822 1.383 0 .635.266 1.088.816 1.39l.326.18 2.139.02 2.138.017-3.353 3.365c-1.848 1.849-3.407 3.462-3.467 3.576-.055.121-.115.405-.133.647-.024.386-.006.477.133.767.302.616.821.912 1.51.87.236-.018.526-.079.64-.133.115-.06 1.728-1.619 3.577-3.468l3.364-3.352.019 2.138c.018 1.951.03 2.157.133 2.35.205.387.38.574.706.755.272.151.393.175.75.175.477 0 .79-.126 1.117-.459.441-.435.423-.193.423-4.96 0-4.748.018-4.506-.41-4.96-.466-.482-.176-.458-5.003-.458h-4.29l-.313.157zM10.395 19.47c-.417.132-.816.5-3.909 3.588l-3.335 3.328-.018-2.144-.018-2.139-.181-.326c-.302-.544-.755-.816-1.39-.816-.67 0-1.196.339-1.45.949-.078.187-.09.791-.09 4.494 0 4.809-.024 4.519.46 4.984.452.43.21.411 4.959.411 4.766 0 4.525.018 4.96-.423.332-.326.459-.64.459-1.117 0-.635-.266-1.088-.816-1.39l-.326-.181-2.139-.018-2.144-.018 3.329-3.335c2.265-2.265 3.37-3.42 3.467-3.607.187-.356.2-1.069.03-1.389a1.866 1.866 0 00-.73-.737c-.26-.133-.87-.2-1.118-.115z" fill="#8A005C"/></svg>