<svg width="30" height="29" fill="none" xmlns="http://www.w3.org/2000/svg"><path d="M19.352.024c-.35.096-.521.331-1.125 1.558C17.07 3.915 15.46 6.28 13.262 8.88c-.731.864-2.136 2.365-2.785 2.969l-.292.273-.21-.426c-.292-.591-.763-1.042-1.38-1.341L8.1 10.12l-2.791-.02c-2.645-.019-2.816-.012-3.21.109-.89.273-1.596.94-1.94 1.837-.133.362-.133.381-.152 7.26-.019 7.685-.032 7.444.407 8.175.286.483.572.77 1.023 1.042.674.407.903.44 3.65.44 1.423.005 2.6-.02 2.797-.058a3.144 3.144 0 001.506-.788l.369-.35.235.19c.4.331.941.624 1.475.808l.509.172 6.039.019c6.745.019 6.624.025 7.52-.413.54-.267 1.297-.935 1.66-1.475.35-.515.667-1.17.858-1.787.216-.68 1.945-9.86 1.945-10.317-.006-1.761-1.31-3.433-3.191-4.088l-.528-.184-2.206-.032-2.212-.032.229-.381c.82-1.36 1.513-3.09 1.786-4.476.159-.8.14-2.167-.032-2.822C23.46 1.525 22.511.565 21.1.177c-.47-.133-1.507-.222-1.748-.153zm1.608 2.353c.655.311.935.94.928 2.053-.019 1.672-.928 3.903-2.473 6.04-.572.794-.623.908-.59 1.302.031.382.215.68.514.846.184.095.521.108 3.414.14l3.21.032.432.203c.77.369 1.374 1.087 1.482 1.767.044.318-1.609 9.218-1.857 9.955-.305.929-.845 1.634-1.487 1.952l-.35.172-5.778.019c-6.434.019-6.218.032-6.885-.413-.343-.223-.725-.674-.941-1.087-.267-.54-.286-.827-.286-5.773v-4.71l.585-.502c1.233-1.056 3.153-3.071 4.59-4.826 1.773-2.155 3.617-4.914 4.621-6.903.286-.573.255-.566.871-.267zM7.782 12.313c.439.273.413-.16.413 7.234v6.669l-.146.216c-.293.439-.305.445-2.982.426-2.307-.02-2.403-.026-2.574-.153a1.113 1.113 0 01-.286-.35c-.108-.203-.115-.654-.115-6.808 0-4.513.02-6.65.07-6.77.083-.216.299-.458.47-.528.07-.032 1.208-.057 2.537-.057 2.308-.006 2.416 0 2.613.12z" fill="#28980C"/></svg>