<svg width="33" height="29" fill="none" xmlns="http://www.w3.org/2000/svg"><path d="M16.253.053c-.446.076-1.057.388-1.368.7-.344.35.171-.535-7.56 12.853C3.66 19.956.6 25.314.535 25.505c-.095.274-.114.477-.095.96.02.529.051.663.23 1.025a2.696 2.696 0 002.004 1.458c.521.07 27.565.07 28.087 0a2.696 2.696 0 002.004-1.458c.178-.362.21-.496.229-1.024.02-.484 0-.687-.095-.961-.064-.19-3.125-5.549-6.79-11.899C18.378.218 18.893 1.102 18.55.752c-.33-.33-.916-.617-1.425-.7-.42-.07-.439-.07-.871 0zm.604 2.526c.051.063 3.163 5.434 6.917 11.937 5.555 9.627 6.808 11.842 6.751 11.918-.12.134-27.495.134-27.616 0-.057-.076 1.196-2.29 6.751-11.918 3.755-6.503 6.866-11.874 6.917-11.937.051-.058.115-.109.14-.109.026 0 .09.051.14.109z" fill="#EC2D0B"/><path d="M16.153 10.093a1.48 1.48 0 00-.414.35l-.197.249-.02 3.817c-.012 3.8-.012 3.825.122 4.105.203.426.547.623 1.075.623.528 0 .872-.197 1.075-.623.134-.28.134-.306.121-4.105l-.019-3.817-.197-.249c-.26-.324-.554-.464-.98-.464-.21 0-.439.045-.566.114zm.229 10.735a1.197 1.197 0 00-.776.637c-.14.299-.134 1.488.006 1.768.146.287.28.42.547.56.446.23 1.152.115 1.457-.235.274-.312.325-.522.3-1.298-.02-.732-.026-.757-.217-1-.33-.413-.802-.572-1.317-.432z" fill="#EC2D0B"/></svg>