<svg width="17" height="18" fill="none" xmlns="http://www.w3.org/2000/svg"><path d="M1.168.076a1.79 1.79 0 00-1.027.942c-.098.196-.125.326-.138.67-.018.468.058.777.267 1.09.063.088 1.51 1.616 3.216 3.393C5.919 8.707 6.598 9.435 6.62 9.547c.014.08.027 1.835.027 3.903 0 3.563.005 3.764.085 3.934.179.388.558.616 1.01.616.32-.004.41-.044 1.245-.571.657-.42.916-.661 1.09-1.04l.12-.255.023-3.327.022-3.327.112-.139c.062-.075 1.464-1.549 3.121-3.273 1.657-1.719 3.059-3.202 3.121-3.29.21-.313.286-.622.268-1.09-.013-.353-.04-.47-.147-.693a2.005 2.005 0 00-.848-.853L15.6.013 8.5.004C1.667-.005 1.39-.005 1.167.076z" fill="#8A005C"/></svg>