<svg width="15" height="15" fill="none" xmlns="http://www.w3.org/2000/svg"><path d="M5.562.062a.686.686 0 00-.317.334c-.02.047-.094.495-.164.993l-.129.903-.234.117c-.13.064-.346.19-.48.278l-.25.161-.853-.34c-.747-.298-.876-.34-1.025-.34a.66.66 0 00-.49.197C1.556 2.435.278 4.618.07 5.014a.767.767 0 00-.006.627c.08.153.106.176.888.783l.66.512-.003.569-.003.566-.613.48c-.838.654-.853.668-.926.806a.802.802 0 00-.003.621c.138.267 1.454 2.53 1.53 2.623.117.15.302.234.513.234.152 0 .275-.04 1.028-.34l.856-.34.188.127c.102.07.319.196.48.281l.293.15.135.94c.15 1.046.164 1.09.413 1.254l.123.082L7.25 15c1.052.005 1.664-.004 1.732-.021a.694.694 0 00.378-.332c.04-.087.093-.378.178-.975.065-.47.123-.877.132-.909.01-.04.082-.094.226-.16a4.51 4.51 0 00.475-.276l.263-.17.859.342c.715.285.885.34 1.014.34.205 0 .38-.073.498-.208.076-.088 1.354-2.27 1.562-2.666.076-.147.07-.446-.012-.607-.073-.14-.126-.188-.94-.82l-.595-.466V6.934l.61-.478c.834-.654.852-.668.925-.809a.765.765 0 00-.005-.636c-.18-.349-1.48-2.576-1.55-2.649a.646.646 0 00-.484-.193c-.156 0-.273.038-1.02.337-.712.284-.856.33-.909.304a5.516 5.516 0 01-.27-.17 5.622 5.622 0 00-.421-.237c-.144-.067-.217-.12-.226-.161a88.069 88.069 0 01-.135-.909c-.064-.469-.137-.89-.158-.937a.675.675 0 00-.316-.334C8.938.002 8.894 0 7.308 0 5.717 0 5.682 0 5.562.062zm2.35 5.037a2.5 2.5 0 011.805 1.802c.05.182.065.317.065.601s-.015.42-.065.6a2.514 2.514 0 01-1.805 1.806c-.331.09-.87.09-1.202 0a2.51 2.51 0 01-1.805-1.805 2.77 2.77 0 010-1.202C5.263 5.562 6.6 4.762 7.912 5.1z" fill="#8A005C"/></svg>