<svg width="29" height="31" fill="none" xmlns="http://www.w3.org/2000/svg"><path d="M12.826 1.063c-.613.193-1.186.618-1.498 1.1-.273.432-.403.88-.443 1.527l-.034.58-.205.067c-.113.034-.505.188-.874.347l-.664.283-.391-.363c-.925-.857-2.094-1.055-3.155-.533-.34.17-.545.346-1.374 1.18-.817.823-1.004 1.044-1.146 1.35-.5 1.062-.295 2.214.55 3.128l.364.397-.2.437c-.107.238-.266.63-.35.868l-.154.432-.573.034c-1.215.068-2.004.578-2.492 1.606L0 13.894v3.236l.187.392c.488 1.027 1.277 1.537 2.492 1.606l.573.034.153.431c.085.238.244.63.352.868l.199.437-.364.398c-.641.692-.913 1.492-.789 2.32.12.79.284 1.05 1.385 2.157s1.419 1.317 2.174 1.43c.885.136 1.685-.142 2.417-.84l.324-.306.67.284c.368.159.76.312.873.346l.205.068.034.579c.068 1.214.573 2.003 1.606 2.491l.391.187h3.235l.392-.187c1.027-.482 1.538-1.277 1.606-2.486l.034-.573.431-.159c.239-.085.63-.244.874-.357l.437-.199.33.312c.731.698 1.537.976 2.428.84.744-.113 1.067-.329 2.162-1.43.818-.823 1.005-1.044 1.147-1.35.494-1.062.295-2.22-.55-3.128l-.364-.391.284-.664c.159-.369.318-.76.357-.874l.069-.204.573-.034c1.208-.069 2.003-.58 2.485-1.606L29 17.13v-3.236l-.188-.391c-.482-1.028-1.277-1.538-2.485-1.607l-.574-.034-.068-.204c-.04-.113-.198-.505-.357-.874l-.284-.664.363-.391c.857-.925 1.056-2.094.534-3.156-.17-.34-.346-.544-1.18-1.373-.823-.817-1.045-1.005-1.351-1.146-1.061-.5-2.214-.296-3.127.55l-.398.363-.437-.193a14.248 14.248 0 00-.873-.363l-.443-.164v-.341c0-1.084-.414-1.94-1.192-2.474-.59-.403-.829-.449-2.457-.443-.988 0-1.498.023-1.657.074zm2.996 1.76c.125.062.29.21.369.334.148.221.153.272.182 1.169.04 1.283.005 1.237 1.22 1.623.374.12 1.027.397 1.447.607.726.37.783.392 1.09.37l.323-.018.653-.635c.732-.71.919-.806 1.356-.693.199.057.38.21 1.073.897.686.692.84.874.896 1.072.114.437.017.625-.692 1.357l-.636.652-.017.324c-.022.306 0 .363.37 1.09.21.42.487 1.072.606 1.447.386 1.214.34 1.18 1.623 1.22.897.028.948.034 1.17.181.402.267.442.426.442 1.692 0 1.265-.04 1.424-.442 1.69-.222.148-.273.154-1.17.182-1.282.04-1.237.006-1.623 1.22a12.348 12.348 0 01-.607 1.448c-.369.726-.391.783-.369 1.09l.017.323.636.652c.71.732.806.92.692 1.351-.056.204-.21.386-.896 1.078-.693.687-.874.84-1.073.897-.437.113-.624.017-1.356-.692l-.653-.636-.323-.017c-.307-.023-.364 0-1.09.369-.42.21-1.073.488-1.447.607-1.215.386-1.18.34-1.22 1.623-.029.897-.035.948-.182 1.17-.267.402-.426.442-1.691.442-1.266 0-1.425-.04-1.691-.443-.148-.221-.154-.272-.182-1.169-.04-1.282-.006-1.237-1.22-1.623a12.408 12.408 0 01-1.447-.607c-.727-.369-.783-.392-1.09-.369l-.323.017-.653.636c-.732.709-.92.805-1.356.692-.199-.057-.38-.21-1.073-.897-.687-.692-.84-.874-.897-1.078-.113-.431-.017-.619.693-1.35l.635-.653.017-.324c.023-.306 0-.363-.368-1.09-.21-.42-.489-1.072-.608-1.446-.386-1.215-.34-1.18-1.623-1.22-.896-.029-.947-.035-1.169-.182-.403-.267-.442-.426-.442-1.691 0-1.266.04-1.425.442-1.692.222-.147.273-.153 1.17-.181 1.282-.04 1.236-.006 1.622-1.22.12-.375.398-1.027.608-1.447.368-.727.391-.784.368-1.09l-.017-.324-.635-.652c-.71-.732-.806-.92-.693-1.357.057-.198.21-.38.897-1.072.93-.93 1.09-1.022 1.538-.897.187.051.375.199.891.693.647.624.653.63.96.658.294.023.351 0 1.117-.38.448-.222 1.13-.505 1.515-.63.392-.125.766-.267.829-.307.25-.164.312-.42.312-1.237 0-.89.051-1.118.312-1.379.267-.267.51-.306 1.674-.295.84.011 1.027.028 1.21.12z" fill="#CD6D00"/><path d="M13.658 9.218c-.868.113-2.02.545-2.713 1.021a7.016 7.016 0 00-1.413 1.311c-.448.562-.993 1.623-1.163 2.287a6.824 6.824 0 000 3.349c.136.505.567 1.464.857 1.878a6.401 6.401 0 004.903 2.78c2.032.131 4.035-.76 5.335-2.371.448-.562.993-1.623 1.163-2.287a6.823 6.823 0 000-3.349c-.17-.664-.715-1.725-1.163-2.287-.642-.794-1.317-1.322-2.26-1.77a6.307 6.307 0 00-3.546-.562zm1.946 1.844c1.652.443 2.86 1.64 3.332 3.303.181.624.176 1.674 0 2.304a4.726 4.726 0 01-3.286 3.28c-.63.182-1.674.182-2.31 0-1.623-.465-2.815-1.657-3.28-3.28-.165-.584-.176-1.674-.023-2.236.517-1.878 1.958-3.172 3.865-3.484.318-.046 1.356.017 1.702.113z" fill="#CD6D00"/></svg>