<svg width="22" height="20" fill="none" xmlns="http://www.w3.org/2000/svg"><path d="M2.103.485c-.328.118-.627.366-.775.653-.033.067-.345 1.259-.694 2.653-.712 2.86-.716 2.868-.531 3.592C.402 8.571 1.299 9.49 2.436 9.78c.43.11 1.103.11 1.533 0 .577-.148 1.158-.506 1.584-.965l.176-.198.182.198A3.074 3.074 0 008.256 9.86c.918 0 1.719-.354 2.35-1.045l.177-.198.181.198A3.074 3.074 0 0013.31 9.86c.918 0 1.718-.354 2.35-1.045l.177-.198.181.198a3.074 3.074 0 002.346 1.045c1.25 0 2.282-.661 2.885-1.85.168-.336.316-.964.316-1.355 0-.29-.085-.674-.636-2.872-.426-1.71-.666-2.59-.733-2.708a1.486 1.486 0 00-.581-.531l-.177-.097L10.846.44c-6.953-.009-8.62 0-8.743.046zm3.48 9.99c-.14.11-.7.379-.99.476a4.04 4.04 0 01-1.369.214 4.03 4.03 0 01-1.419-.231 8.964 8.964 0 00-.383-.135c-.068-.021-.072.16-.063 3.76l.012 3.787.097.198c.127.252.38.505.632.631l.198.097 2.897.013 2.894.008v-5.39h5.39v5.39l2.898-.008 2.893-.013.198-.096c.253-.127.505-.38.632-.632l.096-.198.013-3.786c.009-3.601.004-3.782-.063-3.761a8.988 8.988 0 00-.383.135 4.386 4.386 0 01-2.788.017 5.983 5.983 0 01-1.02-.489c-.113-.072-.122-.072-.231 0-.248.164-.889.45-1.192.53a4.515 4.515 0 01-3.137-.269 6.658 6.658 0 01-.493-.261c-.114-.072-.122-.072-.232 0-.248.164-.888.45-1.192.53a4.585 4.585 0 01-3.575-.496c-.143-.106-.207-.11-.32-.021z" fill="#E0E0E0"/></svg>