<svg width="16" height="17" fill="none" xmlns="http://www.w3.org/2000/svg"><path d="M15.597 7.758l-3.216 2.877.98 4.302c.053.234.04.479-.04.704-.08.225-.223.421-.41.562a1.14 1.14 0 01-1.3.054L8 13.956l-3.612 2.303A1.141 1.141 0 013.09 16.2a1.212 1.212 0 01-.41-.561 1.257 1.257 0 01-.04-.703l.983-4.302L.407 7.758a1.226 1.226 0 01-.363-.594 1.262 1.262 0 01.013-.703c.071-.228.205-.43.386-.579.18-.15.4-.24.63-.261l4.217-.353 1.627-4.08c.088-.223.238-.413.43-.547a1.14 1.14 0 011.303 0c.192.134.342.324.43.547l1.626 4.08 4.217.353c.23.02.45.11.632.26.181.149.316.35.388.579.071.228.076.473.014.704a1.226 1.226 0 01-.365.595h.005z" fill="#E6C300"/></svg>