<svg width="18" height="18" fill="none" xmlns="http://www.w3.org/2000/svg"><path d="M7.908.052A9.071 9.071 0 002.766 2.49c-.529.51-.863.9-1.265 1.503C.76 5.09.258 6.409.05 7.797c-.076.533-.065 2.006.02 2.531.268 1.626.893 3.068 1.855 4.287.28.357 1.1 1.177 1.457 1.457 1.216.959 2.677 1.591 4.287 1.856.595.096 2.052.096 2.646 0 1.944-.318 3.582-1.127 4.939-2.439a9.075 9.075 0 002.715-5.62c.053-.56.027-1.684-.062-2.225A9.047 9.047 0 009.906.033a12.005 12.005 0 00-1.998.019zM9.4 3.426a.828.828 0 01.272.28l.107.18.012 2.397.011 2.396 1.143 1.15c.629.633 1.177 1.212 1.216 1.285.042.08.069.219.069.345.003.602-.656.986-1.166.683-.211-.127-2.688-2.608-2.784-2.792-.069-.126-.073-.276-.073-2.799V3.886l.104-.18a.777.777 0 011.089-.28z" fill="#AAA"/></svg>