<svg width="18" height="18" fill="none" xmlns="http://www.w3.org/2000/svg"><path d="M7.876.05A8.944 8.944 0 004.04 1.47 9.014 9.014 0 00.372 6.375a10.278 10.278 0 00-.338 1.646c-.045.44-.045 1.516 0 1.955.38 3.566 2.901 6.611 6.344 7.652a10.27 10.27 0 001.646.338c.44.045 1.515.045 1.955 0a8.974 8.974 0 005.496-2.694 8.9 8.9 0 002.156-3.65c.26-.855.373-1.646.373-2.623 0-.735-.036-1.14-.162-1.776-.637-3.235-3.049-5.894-6.217-6.854A10.277 10.277 0 009.979.031c-.46-.049-1.65-.038-2.103.018zm2.226 2.633c.865.176 1.379.37 2.124.788l.292.165L8.08 8.074l-4.438 4.438-.137-.236a6.3 6.3 0 01-.893-3.485c.039-.977.253-1.839.672-2.669A6.602 6.602 0 015.72 3.5a6.7 6.7 0 012.278-.827c.137-.02.285-.045.334-.052.218-.04 1.509.01 1.77.063zm4.702 3.625c.432.918.626 1.871.587 2.898a5.83 5.83 0 01-.215 1.47 6.231 6.231 0 01-1.656 2.845c-.956.96-2.071 1.533-3.516 1.81-.334.068-1.67.068-2.005 0-.9-.171-1.466-.375-2.222-.804l-.292-.166 4.438-4.438 4.438-4.437.137.235c.077.13.214.394.306.587z" fill="#EC2D0B"/></svg>