<svg width="29" height="29" fill="none" xmlns="http://www.w3.org/2000/svg"><circle cx="14.5" cy="14.5" r="14" stroke="#171616"/><path d="M12.016 17.835l.368.401.369-.401 8.55-9.312h0a.329.329 0 01.242-.114c.082 0 .17.035.242.114.073.08.121.197.121.327s-.048.247-.121.327L12.63 19.16a.313.313 0 01-.483 0l-3.618-3.944a.451.451 0 01-.088-.145l-.465.177.465-.177a.515.515 0 01-.033-.182c0-.13.048-.247.121-.327a.329.329 0 01.242-.114c.082 0 .17.035.242.114l3.003 3.274z" fill="#000" stroke="#171616"/></svg>